<svg width="759" height="531" viewBox="0 0 759 531" fill="none" xmlns="http://www.w3.org/2000/svg">
<g id="svg" clip-path="url(#clip0_1_215)">
<path id="cloud" d="M700.637 505.009C730.466 505.009 754.265 476.443 752.948 442.227C751.225 397.49 731.301 334.321 652.769 271.193C557.001 194.21 605.417 -14.495 401.937 0.797813C198.457 16.0906 243.515 163.636 129.704 253.127C26.3827 334.37 -5.99442 383.325 -6 444.983C-6 478.15 17.4729 505.009 46.3603 505.009H700.637Z" fill="#A6C9FF"/>
<g id="screen">
<path id="Vector" d="M626.863 12.182H120.796V361.301H626.863V12.182Z" fill="#DEE8F5"/>
<path id="Vector_2" d="M626.863 12.182H120.796V40.9403H626.863V12.182Z" fill="#C1D8ED"/>
<path id="Vector_3" d="M609.913 33.7779C614.096 33.7779 617.487 30.5474 617.487 26.5624C617.487 22.5774 614.096 19.347 609.913 19.347C605.73 19.347 602.339 22.5774 602.339 26.5624C602.339 30.5474 605.73 33.7779 609.913 33.7779Z" fill="white"/>
</g>
<path id="gear1" d="M179.751 231.445L200.531 248.587C200.923 248.911 201.433 249.057 201.95 248.995C202.467 248.933 202.948 248.667 203.288 248.256L216.501 232.238C216.792 231.888 217.188 231.642 217.624 231.54C218.059 231.439 218.509 231.488 218.899 231.679C226.116 235.155 233.904 237.389 241.955 238.293C242.392 238.34 242.794 238.537 243.095 238.85C243.395 239.164 243.577 239.576 243.61 240.02L245.058 260.247C245.077 260.504 245.145 260.753 245.26 260.979C245.375 261.205 245.534 261.403 245.728 261.563C245.922 261.724 246.147 261.842 246.391 261.912C246.635 261.982 246.892 262.002 247.148 261.971L274.573 258.667C275.09 258.605 275.571 258.339 275.911 257.927C276.25 257.516 276.42 256.993 276.383 256.473L274.937 236.242C274.906 235.798 275.025 235.349 275.276 234.969C275.527 234.589 275.895 234.3 276.318 234.149C284.103 231.339 291.441 227.285 298.043 222.146C298.399 221.864 298.835 221.708 299.277 221.704C299.72 221.7 300.144 221.847 300.48 222.122L315.737 234.708C316.129 235.032 316.64 235.178 317.157 235.116C317.675 235.054 318.156 234.787 318.495 234.376L336.492 212.56C336.831 212.148 337.001 211.625 336.964 211.106C336.927 210.586 336.686 210.112 336.294 209.789L321.036 197.203C320.702 196.925 320.477 196.537 320.397 196.101C320.317 195.666 320.388 195.209 320.596 194.805C324.387 187.348 326.974 179.373 328.255 171.195C328.322 170.751 328.536 170.335 328.862 170.016C329.187 169.697 329.605 169.494 330.047 169.44L350.188 167.017C350.445 166.986 350.695 166.905 350.924 166.778C351.154 166.651 351.358 166.481 351.526 166.277C351.694 166.073 351.823 165.84 351.904 165.591C351.985 165.341 352.017 165.08 351.999 164.823L350.023 137.278C350.005 137.02 349.936 136.772 349.822 136.546C349.707 136.32 349.548 136.121 349.354 135.961C349.16 135.801 348.934 135.683 348.691 135.613C348.447 135.543 348.19 135.523 347.934 135.554L327.798 137.98C327.356 138.031 326.917 137.931 326.553 137.695C326.188 137.459 325.92 137.101 325.791 136.68C323.371 128.948 319.697 121.728 314.913 115.303C314.651 114.957 314.517 114.525 314.534 114.079C314.55 113.633 314.715 113.198 315.003 112.846L328.215 96.829C328.554 96.4174 328.724 95.8944 328.687 95.3749C328.65 94.8554 328.409 94.3818 328.017 94.0583L307.237 76.9165C306.845 76.5931 306.334 76.4465 305.817 76.5088C305.3 76.5711 304.819 76.8373 304.479 77.2488L291.267 93.2657C290.975 93.615 290.58 93.86 290.145 93.9608C289.71 94.0615 289.261 94.0121 288.871 93.8206C281.654 90.3451 273.867 88.1112 265.816 87.2071C265.378 87.1608 264.976 86.9651 264.675 86.6522C264.374 86.3392 264.192 85.9274 264.158 85.4838L262.712 65.2527C262.674 64.7333 262.433 64.26 262.041 63.9368C261.65 63.6135 261.139 63.4669 260.622 63.529L233.21 66.832C232.954 66.8629 232.704 66.9441 232.474 67.0711C232.245 67.1981 232.04 67.3683 231.872 67.572C231.704 67.7758 231.576 68.0091 231.495 68.2586C231.414 68.5081 231.381 68.7689 231.4 69.0262L232.846 89.2561C232.877 89.7001 232.757 90.1488 232.506 90.529C232.255 90.9091 231.888 91.1981 231.464 91.3489C223.679 94.1612 216.341 98.2176 209.74 103.358C209.384 103.639 208.95 103.795 208.508 103.8C208.066 103.805 207.642 103.659 207.306 103.385L192.049 90.7986C191.855 90.6384 191.629 90.5199 191.386 90.4499C191.142 90.3799 190.885 90.3597 190.629 90.3906C190.373 90.4214 190.123 90.5027 189.893 90.6298C189.663 90.7568 189.459 90.9271 189.291 91.1309L171.297 112.944C171.128 113.148 171 113.381 170.919 113.631C170.838 113.88 170.806 114.141 170.824 114.398C170.842 114.656 170.911 114.904 171.026 115.13C171.141 115.356 171.3 115.555 171.495 115.715L186.738 128.289C187.072 128.567 187.297 128.955 187.377 129.391C187.457 129.826 187.386 130.283 187.178 130.687C183.386 138.145 180.798 146.12 179.517 154.298C179.449 154.743 179.235 155.158 178.91 155.477C178.584 155.796 178.167 155.999 177.725 156.053L157.593 158.48C157.076 158.542 156.595 158.809 156.255 159.22C155.916 159.632 155.746 160.155 155.783 160.674L157.747 188.221C157.765 188.478 157.834 188.727 157.949 188.953C158.064 189.179 158.223 189.377 158.417 189.537C158.611 189.697 158.836 189.816 159.08 189.886C159.324 189.956 159.581 189.976 159.837 189.945L179.974 187.519C180.416 187.466 180.855 187.566 181.22 187.801C181.586 188.037 181.855 188.394 181.984 188.815C184.402 196.547 188.075 203.768 192.86 210.192C193.122 210.539 193.255 210.972 193.239 211.419C193.222 211.866 193.055 212.301 192.767 212.653L179.554 228.671C179.385 228.875 179.256 229.108 179.174 229.358C179.093 229.608 179.06 229.869 179.079 230.127C179.097 230.385 179.166 230.634 179.281 230.86C179.396 231.086 179.556 231.285 179.751 231.445V231.445ZM220.011 136.69C225.519 129.576 232.942 124.198 241.317 121.254C249.692 118.31 258.631 117.936 266.974 120.182C275.316 122.427 282.677 127.188 288.099 133.845C293.521 140.503 296.755 148.749 297.379 157.513C298.004 166.278 295.991 175.155 291.601 182.992C287.212 190.83 280.649 197.265 272.766 201.461C264.882 205.658 256.042 207.423 247.394 206.526C238.745 205.629 230.688 202.113 224.269 196.433C216.141 189.244 211.179 179.07 210.388 167.975C209.598 156.879 213.038 145.695 220.011 136.69V136.69Z" fill="white"/>
<path id="gear2" d="M471.001 267.901L467.159 251.458C467.123 251.305 467.056 251.159 466.961 251.031C466.866 250.902 466.746 250.792 466.606 250.708C466.467 250.623 466.311 250.566 466.149 250.539C465.986 250.512 465.819 250.515 465.658 250.55L452.984 253.237C452.706 253.295 452.416 253.261 452.16 253.141C451.904 253.022 451.699 252.823 451.577 252.578C449.3 248.077 446.267 243.961 442.598 240.392C442.397 240.199 442.271 239.947 442.24 239.677C442.209 239.408 442.275 239.136 442.427 238.906L449.395 228.466C449.574 228.197 449.634 227.873 449.562 227.563C449.489 227.253 449.291 226.982 449.009 226.812L434.083 217.771C433.801 217.601 433.46 217.544 433.135 217.613C432.809 217.682 432.526 217.871 432.347 218.139L425.378 228.58C425.224 228.809 424.993 228.981 424.723 229.069C424.453 229.156 424.159 229.154 423.891 229.062C418.941 227.411 413.742 226.541 408.498 226.486C408.213 226.485 407.937 226.392 407.715 226.222C407.493 226.053 407.337 225.816 407.274 225.551L404.452 213.477C404.416 213.324 404.349 213.179 404.254 213.05C404.16 212.921 404.039 212.811 403.9 212.727C403.76 212.642 403.605 212.585 403.442 212.558C403.279 212.531 403.113 212.534 402.952 212.569L385.698 216.229C385.373 216.298 385.089 216.487 384.91 216.755C384.731 217.023 384.671 217.348 384.743 217.658L387.565 229.732C387.626 229.997 387.591 230.274 387.465 230.518C387.34 230.761 387.131 230.957 386.874 231.073C382.149 233.242 377.828 236.131 374.082 239.626C373.879 239.818 373.615 239.938 373.332 239.967C373.048 239.997 372.763 239.934 372.522 239.789L361.562 233.146C361.28 232.976 360.939 232.919 360.614 232.988C360.288 233.057 360.005 233.247 359.825 233.514L350.341 247.732C350.163 248 350.103 248.325 350.176 248.635C350.248 248.945 350.447 249.215 350.728 249.386L361.687 256.024C361.927 256.17 362.108 256.39 362.2 256.648C362.292 256.905 362.29 257.185 362.193 257.441C360.46 262.156 359.547 267.109 359.49 272.105C359.489 272.376 359.391 272.639 359.213 272.851C359.035 273.063 358.787 273.21 358.509 273.27L345.834 275.958C345.673 275.992 345.52 276.056 345.385 276.146C345.25 276.237 345.135 276.352 345.046 276.484C344.958 276.617 344.897 276.765 344.869 276.92C344.84 277.075 344.844 277.234 344.88 277.387L348.723 293.831C348.759 293.984 348.826 294.13 348.921 294.259C349.016 294.387 349.137 294.497 349.276 294.581C349.415 294.666 349.571 294.723 349.733 294.75C349.896 294.778 350.063 294.774 350.224 294.74L362.898 292.052C363.176 291.994 363.467 292.028 363.722 292.147C363.978 292.267 364.184 292.466 364.305 292.711C366.582 297.212 369.614 301.328 373.284 304.898C373.484 305.09 373.611 305.342 373.642 305.612C373.673 305.882 373.607 306.154 373.455 306.383L366.481 316.823C366.302 317.091 366.243 317.416 366.315 317.726C366.388 318.036 366.587 318.306 366.868 318.477L381.788 327.511C381.928 327.596 382.083 327.653 382.246 327.68C382.409 327.708 382.575 327.704 382.737 327.67C382.898 327.636 383.05 327.571 383.185 327.481C383.321 327.391 383.436 327.276 383.524 327.143L390.493 316.703C390.647 316.474 390.878 316.302 391.148 316.214C391.418 316.127 391.712 316.129 391.98 316.22C396.93 317.872 402.13 318.742 407.374 318.796C407.659 318.798 407.935 318.891 408.157 319.061C408.379 319.23 408.535 319.467 408.598 319.732L411.419 331.805C411.455 331.958 411.522 332.104 411.617 332.232C411.711 332.361 411.832 332.471 411.971 332.555C412.111 332.64 412.266 332.697 412.429 332.724C412.592 332.751 412.758 332.748 412.919 332.714L430.18 329.054C430.341 329.019 430.494 328.955 430.629 328.865C430.765 328.775 430.88 328.66 430.969 328.527C431.057 328.394 431.118 328.246 431.146 328.091C431.175 327.936 431.171 327.777 431.135 327.624L428.314 315.551C428.253 315.286 428.288 315.009 428.414 314.765C428.539 314.521 428.748 314.326 429.006 314.21C433.73 312.041 438.051 309.152 441.798 305.657C442.001 305.466 442.265 305.346 442.549 305.316C442.832 305.286 443.118 305.349 443.359 305.494L454.317 312.132C454.456 312.216 454.612 312.274 454.774 312.301C454.937 312.328 455.104 312.325 455.265 312.291C455.426 312.256 455.579 312.192 455.714 312.102C455.849 312.012 455.964 311.897 456.053 311.764L465.545 297.55C465.633 297.417 465.694 297.269 465.722 297.114C465.751 296.959 465.747 296.801 465.711 296.647C465.675 296.493 465.608 296.348 465.513 296.219C465.418 296.091 465.297 295.981 465.158 295.897L454.198 289.253C453.958 289.106 453.777 288.886 453.685 288.629C453.593 288.372 453.595 288.092 453.691 287.836C455.425 283.121 456.338 278.168 456.396 273.173C456.397 272.902 456.495 272.638 456.673 272.427C456.852 272.215 457.1 272.067 457.378 272.007L470.052 269.32C470.374 269.25 470.654 269.061 470.832 268.796C471.009 268.53 471.07 268.209 471.001 267.901V267.901ZM414.917 298.527C409.468 299.861 403.723 299.603 398.43 297.787C393.136 295.971 388.539 292.68 385.234 288.343C381.929 284.006 380.069 278.822 379.897 273.465C379.725 268.108 381.247 262.825 384.267 258.303C387.287 253.781 391.665 250.228 396.832 248.107C401.998 245.985 407.715 245.393 413.24 246.406C418.765 247.42 423.842 249.993 427.812 253.79C431.782 257.588 434.462 262.435 435.503 267.702C436.821 274.37 435.427 281.266 431.604 286.99C427.781 292.715 421.815 296.839 414.917 298.527V298.527Z" fill="#C1D8ED"/>
<g id="guy">
<g id="Group">
<path id="Vector_4" d="M107.25 358.255C107.25 358.255 114.44 354.623 112.835 335.972L127.69 333.348C127.69 333.348 126.021 350.07 133.536 355.379L107.25 358.255Z" fill="#FAA896"/>
<path id="Vector_5" opacity="0.15" d="M130.493 351.886L118.151 342.892L127.844 342.796C128.125 345.957 129.023 349.04 130.493 351.886V351.886Z" fill="black"/>
<path id="Vector_6" d="M104.406 328.742C105.434 334.401 108.676 339.76 113.915 341.586C120.136 343.756 124.743 343.903 131.915 343.903C141.702 343.903 141.378 334.18 141.653 324.381C141.932 314.549 141.108 303.993 137.24 300.565C129.522 293.723 106.859 298.055 104.103 309.5C102.677 315.42 103.427 323.356 104.406 328.742Z" fill="#FAA896"/>
<path id="Vector_7" d="M146.899 306.253C146.899 306.253 150.906 305.401 149.809 301.594C149.082 299.069 145.686 299.629 145.686 299.629C145.686 299.629 148.902 299.069 148.902 296.395C148.902 294.712 147.542 291.855 143.443 293.487C138.631 295.401 133.145 295.155 128.973 294.487C126.613 293.995 124.218 293.673 121.807 293.523H121.794C119.023 293.477 116.26 293.829 113.598 294.567C106.141 296.693 94.8555 303.063 97.2545 317.502C99.9324 333.619 107.871 339.782 111.364 341.759C111.571 341.878 111.803 341.95 112.043 341.97C112.283 341.991 112.525 341.959 112.751 341.877C112.976 341.796 113.179 341.666 113.345 341.499C113.51 341.332 113.633 341.131 113.705 340.912C114.696 337.891 116.402 330.291 115.925 314.62C138.847 313.549 145.443 313.224 145.443 313.224C145.443 313.224 150.836 313.416 150.836 309.662C150.836 305.907 146.899 306.253 146.899 306.253Z" fill="#0F1011"/>
<g id="Group_2">
<path id="Vector_8" d="M127.669 324.384C128.413 324.384 129.016 323.809 129.016 323.1C129.016 322.392 128.413 321.817 127.669 321.817C126.925 321.817 126.321 322.392 126.321 323.1C126.321 323.809 126.925 324.384 127.669 324.384Z" fill="#0F1011"/>
<path id="Vector_9" d="M138.299 323.553C139.043 323.553 139.646 322.978 139.646 322.27C139.646 321.561 139.043 320.986 138.299 320.986C137.555 320.986 136.951 321.561 136.951 322.27C136.951 322.978 137.555 323.553 138.299 323.553Z" fill="#0F1011"/>
<path id="Vector_10" d="M137.064 318.89L140.633 318.932" stroke="#0F1011" stroke-width="1.362" stroke-miterlimit="10" stroke-linecap="round"/>
<path id="Vector_11" d="M124.762 320.171L128.28 319.364" stroke="#0F1011" stroke-width="1.362" stroke-miterlimit="10" stroke-linecap="round"/>
</g>
<path id="Vector_12" d="M120.66 326.241C120.774 327.674 120.288 329.092 119.308 330.184C118.327 331.277 116.933 331.956 115.43 332.073C113.926 332.19 112.434 331.736 111.281 330.809C110.128 329.882 109.407 328.558 109.275 327.126C109.2 326.412 109.278 325.69 109.502 325.005C109.727 324.32 110.094 323.684 110.582 323.137C111.069 322.589 111.668 322.141 112.341 321.818C113.014 321.496 113.749 321.306 114.501 321.259C118.572 321.136 120.402 323.246 120.66 326.241Z" fill="#FAA896"/>
<g id="Group_3" opacity="0.15">
<path id="Vector_13" opacity="0.15" d="M133.649 330.219C133.538 330.219 133.43 330.181 133.346 330.112C133.261 330.043 133.206 329.947 133.189 329.842C133.173 329.737 133.196 329.63 133.256 329.541C133.315 329.451 133.406 329.384 133.513 329.353L136.254 328.552L134.337 324.485C134.288 324.378 134.285 324.257 134.329 324.149C134.373 324.04 134.461 323.952 134.572 323.904C134.684 323.857 134.811 323.853 134.925 323.893C135.04 323.934 135.133 324.016 135.185 324.122L137.318 328.645C137.345 328.703 137.359 328.765 137.359 328.828C137.358 328.89 137.344 328.952 137.317 329.01C137.29 329.067 137.25 329.118 137.201 329.159C137.151 329.201 137.093 329.232 137.03 329.25L133.786 330.2C133.742 330.213 133.696 330.219 133.649 330.219Z" fill="black"/>
</g>
<path id="Vector_14" d="M128.293 333.208C128.293 333.208 133.265 333.708 136.754 332.547C136.754 332.547 136.727 335.668 132.791 335.975C128.855 336.282 128.293 333.208 128.293 333.208Z" fill="#F8FCFF"/>
</g>
<g id="Group_4">
<g id="Group_5">
<path id="Vector_15" d="M165.641 495.243C167.407 494.961 187.338 491.718 187.338 491.718L184.051 473.383C184.051 473.383 164.174 476.618 162.414 476.898L165.641 495.243Z" fill="#FAA896"/>
<path id="Vector_16" d="M198.707 512.831C198.791 513.325 198.768 513.83 198.638 514.315C198.508 514.8 198.275 515.254 197.953 515.649C197.63 516.044 197.226 516.371 196.765 516.611C196.304 516.85 195.796 516.996 195.273 517.041C194.548 517.102 193.82 516.964 193.174 516.644C192.528 516.324 191.992 515.835 191.629 515.234L180.367 495.079C180.15 494.688 180.024 494.258 179.999 493.817C179.973 493.375 180.048 492.934 180.218 492.523C181.841 489.247 182.316 485.561 181.575 482.007C180.879 479.259 179.386 476.752 177.265 474.773C177.06 474.602 176.909 474.379 176.832 474.13C176.755 473.881 176.753 473.616 176.828 473.366C176.903 473.116 177.051 472.891 177.255 472.718C177.459 472.545 177.71 472.432 177.98 472.39L188.941 470.64C189.264 470.589 189.595 470.599 189.914 470.669C190.234 470.74 190.535 470.87 190.802 471.052C191.068 471.233 191.294 471.464 191.467 471.729C191.64 471.994 191.756 472.29 191.809 472.598L198.707 512.831Z" fill="#C1D8ED"/>
</g>
<path id="Vector_17" d="M103.94 445.652C95.6691 445.98 87.2447 446.21 78.8204 446.408L66.1596 446.674L53.5138 446.891L52.2538 446.912C47.0308 447.006 42.0393 448.983 38.2858 452.444C34.5322 455.905 32.2957 460.593 32.0273 465.562C31.7588 470.532 33.4784 475.414 36.8392 479.224C40.2 483.034 44.9522 485.488 50.1375 486.092L175.108 500.547L180.2 465.364L55.7872 447.068L52.4101 486.27L65.2502 487.06L78.0821 487.799C86.6506 488.271 95.2218 488.712 103.947 489.054L103.94 445.652Z" fill="#262626"/>
<g id="Group_6">
<path id="Vector_18" d="M72.4156 487.539C89.6679 485.148 91.3844 484.705 91.9534 484.564L86.8793 466.601C86.9369 466.587 87.0113 466.568 87.1015 466.549C85.6872 466.843 76.9188 468.119 69.6056 469.132L72.4156 487.539Z" fill="#FAA896"/>
<path id="Vector_19" d="M50.8619 503.528C50.6806 503.998 50.6029 504.498 50.6337 504.997C50.6645 505.496 50.8031 505.984 51.0408 506.431C51.2785 506.877 51.6102 507.271 52.0152 507.59C52.4203 507.908 52.8899 508.143 53.3948 508.281V508.281C54.0944 508.472 54.8367 508.468 55.5343 508.271C56.2319 508.074 56.8558 507.691 57.3326 507.167L72.4063 489.414C72.6958 489.07 72.9038 488.67 73.0162 488.242C73.1285 487.814 73.1425 487.368 73.0572 486.934C72.1174 483.424 72.3847 479.719 73.8197 476.364C75.0508 473.792 77.0162 471.6 79.4917 470.041C79.7274 469.91 79.9192 469.718 80.0447 469.487C80.1703 469.257 80.2243 468.997 80.2007 468.738C80.177 468.479 80.0765 468.232 79.911 468.025C79.7454 467.819 79.5217 467.661 79.2657 467.571L68.8515 463.872C68.5443 463.763 68.2176 463.713 67.89 463.725C67.5624 463.736 67.2405 463.809 66.9426 463.94C66.6447 464.07 66.3768 464.255 66.1542 464.484C65.9316 464.713 65.7587 464.982 65.6454 465.275L50.8619 503.528Z" fill="#C1D8ED"/>
</g>
<path id="Vector_20" d="M131.688 485.865C136.925 485.441 142.159 485.134 147.393 484.847C152.627 484.581 157.861 484.316 163.093 484.139L170.94 483.851L178.787 483.635C184.018 483.47 189.247 483.401 194.477 483.306L192.663 447.511C182.872 448.815 173.069 450.013 163.269 451.241C153.468 452.469 143.657 453.6 133.848 454.749L119.127 456.398L104.395 457.971C94.5672 458.977 84.7397 459.977 74.8899 460.8L79.2127 496.081C88.9965 494.722 98.8008 493.538 108.607 492.36L123.324 490.66L138.051 489.039C147.875 488.006 157.697 486.956 167.527 485.999C177.358 485.041 187.191 484.06 197.033 483.181C201.753 482.758 206.131 480.654 209.292 477.288C212.453 473.923 214.164 469.544 214.081 465.029C213.999 460.513 212.13 456.194 208.849 452.935C205.567 449.676 201.115 447.717 196.382 447.451L195.218 447.388C189.996 447.097 184.773 446.831 179.553 446.469L171.722 445.958L163.892 445.375C158.671 445 153.453 444.535 148.235 444.074C143.017 443.591 137.799 443.087 132.584 442.466L131.688 485.865Z" fill="#262626"/>
<path id="Vector_21" d="M84.9387 440.218L82.1864 484.245L161.679 483.356L155.678 444.376L84.9387 440.218Z" fill="#262626"/>
</g>
<g id="Group_7">
<path id="Vector_22" d="M59.5875 438.544C60.4234 439.752 61.5336 440.765 62.8359 441.509C64.1383 442.253 65.5996 442.709 67.1118 442.843L79.832 443.97C79.8376 444.117 79.8385 444.263 79.8488 444.413C80.8716 459.418 157.425 455.875 161.321 447.345C162.752 444.215 162.635 441.508 161.913 438.026L176.586 440.018C178.291 440.251 180.031 440.049 181.628 439.434C183.225 438.819 184.623 437.813 185.68 436.517C186.737 435.22 187.414 433.681 187.645 432.055C187.875 430.428 187.649 428.773 186.991 427.256L160.133 365.348C158.501 358.287 153.345 353.595 140.553 353.07C139.967 353.043 139.028 353.025 137.819 353.008C137.577 357.879 105.907 357.862 105.237 352.892C96.2921 352.901 88.9556 355.514 84.7063 359.562C82.159 361.864 80.3451 364.803 79.4731 368.043L58.4029 430.268C57.9374 431.644 57.8021 433.102 58.0072 434.534C58.2122 435.967 58.7523 437.337 59.5875 438.544V438.544ZM158.151 418.725C157.825 415.624 157.603 412.114 157.549 408.111L162.404 419.302L158.151 418.725ZM87.9523 405.897C87.997 406.566 88.0276 407.239 88.0276 407.916C88.0409 413.73 87.117 419.511 85.2883 425.057L81.5755 424.728L87.9523 405.897Z" fill="#367CFF"/>
<g id="Group_8">
<g id="Group_9">
<path id="Vector_23" d="M111.383 382.661L108.097 429.323C108.059 429.873 108.139 430.425 108.333 430.944C108.528 431.463 108.832 431.939 109.227 432.342C109.622 432.744 110.1 433.065 110.631 433.285C111.162 433.504 111.735 433.618 112.313 433.618H180.728C181.774 433.618 182.782 433.249 183.559 432.582C184.335 431.915 184.824 430.997 184.932 430.007L189.995 383.345C190.056 382.785 189.992 382.218 189.809 381.682C189.625 381.147 189.326 380.654 188.929 380.235C188.533 379.817 188.049 379.482 187.508 379.253C186.968 379.024 186.383 378.906 185.791 378.906H115.599C114.528 378.906 113.496 379.294 112.713 379.991C111.93 380.688 111.455 381.643 111.383 382.661V382.661Z" fill="#9EBCEA"/>
<path id="Vector_24" d="M175.014 427.999H103.132C101.503 427.999 100.183 429.256 100.183 430.808C100.183 432.36 101.503 433.618 103.132 433.618H175.014C176.643 433.618 177.964 432.36 177.964 430.808C177.964 429.256 176.643 427.999 175.014 427.999Z" fill="#9EBCEA"/>
</g>
<path id="Vector_25" d="M150.858 412.462C154.453 412.462 157.367 409.686 157.367 406.262C157.367 402.837 154.453 400.061 150.858 400.061C147.263 400.061 144.349 402.837 144.349 406.262C144.349 409.686 147.263 412.462 150.858 412.462Z" fill="white"/>
</g>
<path id="Vector_26" d="M141.481 439.544C137.306 441.997 130.843 443.158 125.208 443.583L124.892 433.804C127.542 433.733 131.615 433.467 135.604 433.618C137.406 432.218 138.444 431.802 140.294 430.039C142.263 428.163 147.432 427.037 148.408 430.039C149.384 433.042 145.148 437.382 141.481 439.544Z" fill="#FAA896"/>
<path id="Vector_27" d="M137.815 353.008C137.573 357.879 134.793 365.045 126.211 365.586C114.774 366.303 105.903 357.862 105.233 352.892H105.261C116.522 352.892 131.25 352.91 137.815 353.008Z" fill="#FAA896"/>
</g>
</g>
<g id="Group_10">
<path id="Vector_28" d="M188.699 353.412L200.629 346.23H257.174V302.39H188.699V353.412Z" fill="#7F70DD"/>
<g id="Group_11">
<path id="Vector_29" d="M247.11 326.134L231.701 333.257V330.501L243.924 325.051V324.989L231.701 319.57V316.783L247.11 323.905V326.134Z" fill="white" stroke="white" stroke-width="0.811" stroke-miterlimit="10"/>
<path id="Vector_30" d="M225.358 334.496L217.426 312.043H220.222L228.154 334.496H225.358Z" fill="white" stroke="white" stroke-width="0.811" stroke-miterlimit="10"/>
<path id="Vector_31" d="M198.763 323.843L214.173 316.782V319.538L201.754 324.989V325.052L214.173 330.502V333.258L198.763 326.197V323.843Z" fill="white" stroke="white" stroke-width="0.811" stroke-miterlimit="10"/>
</g>
</g>
<g id="girl">
<g id="Group_12">
<path id="Vector_32" d="M612.486 507.311C610.427 490.82 610.427 489.124 610.427 488.566H629.953C629.953 488.509 629.953 488.436 629.953 488.349C630.022 489.726 631.007 498.123 631.88 505.114L612.486 507.311Z" fill="#FAA896"/>
<path id="Vector_33" d="M690.292 509.538C690.292 509.538 690.226 490.274 690.226 488.568H709.752C709.752 490.269 709.818 509.477 709.818 509.477L690.292 509.538Z" fill="#FAA896"/>
<path id="Vector_34" d="M639.68 501.44L605.276 500.882C606.706 466.37 606.95 426.895 607.334 391.175C607.441 382.322 608.142 373.484 609.435 364.716C614.97 326.872 618.58 289.244 626.032 251.621L626.28 251.691L627.007 246.97L697.746 242.807L701.434 286.843C701.434 286.843 710.649 439.148 714.851 500.389L680.568 503.148C674.391 443.105 664.833 355.618 658.953 292.541C652.202 323.251 647.609 355.048 641.738 385.495C640.564 423.606 639.572 463.442 639.68 501.44Z" fill="#262626"/>
<path id="Vector_35" d="M666.553 516.732C666.028 516.73 665.509 516.624 665.028 516.422C664.548 516.22 664.117 515.926 663.761 515.558C663.405 515.19 663.133 514.756 662.961 514.284C662.79 513.811 662.722 513.309 662.763 512.811C662.819 512.119 663.082 511.458 663.52 510.904C663.958 510.35 664.552 509.927 665.234 509.684L687.962 502.433C688.403 502.294 688.869 502.247 689.33 502.296C689.791 502.345 690.235 502.488 690.633 502.716C693.757 504.781 697.495 505.837 701.296 505.727C704.257 505.527 707.099 504.538 709.497 502.873C709.708 502.709 709.964 502.604 710.235 502.573C710.506 502.541 710.78 502.584 711.027 502.695C711.273 502.806 711.481 502.982 711.626 503.202C711.772 503.422 711.849 503.676 711.848 503.936V514.523C711.848 514.835 711.783 515.145 711.658 515.433C711.532 515.721 711.347 515.983 711.115 516.204C710.883 516.424 710.607 516.599 710.304 516.717C710.001 516.836 709.676 516.896 709.348 516.895L666.553 516.732Z" fill="#C1D8ED"/>
<path id="Vector_36" d="M588.694 516.732C588.169 516.73 587.65 516.624 587.17 516.422C586.69 516.22 586.258 515.926 585.902 515.558C585.547 515.19 585.275 514.756 585.103 514.284C584.931 513.811 584.864 513.309 584.904 512.811C584.961 512.119 585.223 511.458 585.661 510.904C586.1 510.35 586.695 509.926 587.377 509.684L610.104 502.433C610.544 502.294 611.011 502.247 611.472 502.296C611.933 502.345 612.377 502.488 612.774 502.716C615.899 504.781 619.637 505.836 623.438 505.727C626.399 505.527 629.241 504.538 631.64 502.873C631.851 502.708 632.107 502.604 632.377 502.572C632.648 502.541 632.922 502.583 633.169 502.695C633.415 502.806 633.623 502.982 633.769 503.202C633.914 503.422 633.991 503.676 633.99 503.936V514.523C633.99 514.835 633.925 515.145 633.799 515.433C633.673 515.721 633.489 515.983 633.257 516.204C633.025 516.424 632.749 516.599 632.445 516.717C632.142 516.836 631.817 516.896 631.489 516.895L588.694 516.732Z" fill="#C1D8ED"/>
</g>
<g id="Group_13">
<g id="Group_14">
<path id="Vector_37" d="M553.752 170.624C553.752 170.624 551.287 162.888 546.348 159.802C541.408 156.716 541.419 160.191 543.614 163.675C545.808 167.159 550.984 174.489 550.984 174.489" fill="#FAA896"/>
<path id="Vector_38" d="M550.851 167.394C550.851 167.394 542.203 156.608 537.145 156.608C537.145 156.608 528.996 160.322 529.111 162.72C529.284 166.335 543.065 179.824 543.065 179.824L550.851 167.394Z" fill="#FAA896"/>
</g>
<path id="Vector_39" d="M601.581 223.131C599.364 223.132 597.213 222.413 595.481 221.094L540.176 178.94L552.376 164.413L598.897 199.872L626.793 154.893L643.604 164.355L609.983 218.564C609.12 219.956 607.89 221.11 606.416 221.911C604.942 222.712 603.274 223.133 601.577 223.133L601.581 223.131Z" fill="#367CFF"/>
<path id="Vector_40" d="M622.42 249.936C626.316 258.466 702.87 262.009 703.892 247.004C704.543 237.455 695.71 229.12 695.71 210.51C695.71 191.9 713.684 168.135 699.039 154.184C694.789 150.136 687.453 147.523 678.508 147.514C677.838 152.483 646.168 152.501 645.926 147.629C644.717 147.647 643.778 147.665 643.192 147.691C612.34 148.958 625.897 182.405 626.195 206.976C626.557 235.728 618.403 241.149 622.42 249.936Z" fill="#367CFF"/>
<path id="Vector_41" d="M645.926 147.629C646.168 152.501 648.948 159.667 657.531 160.207C668.968 160.925 677.838 152.483 678.508 147.514H678.48C667.22 147.512 652.491 147.532 645.926 147.629Z" fill="#FAA896"/>
<path id="Vector_42" d="M634.659 156.26L630.741 139.491C630.667 139.175 630.464 138.899 630.177 138.725C629.89 138.552 629.542 138.493 629.209 138.564L616.285 141.305C616.001 141.364 615.704 141.329 615.444 141.207C615.183 141.085 614.973 140.883 614.849 140.633C612.527 136.042 609.434 131.844 605.692 128.204C605.487 128.007 605.358 127.75 605.327 127.475C605.295 127.2 605.362 126.923 605.517 126.689L612.625 116.041C612.806 115.768 612.867 115.437 612.793 115.122C612.719 114.807 612.517 114.532 612.231 114.358L597.008 105.137C596.721 104.965 596.374 104.907 596.043 104.978C595.712 105.048 595.424 105.241 595.241 105.513L588.127 116.155C587.97 116.388 587.735 116.564 587.46 116.653C587.185 116.742 586.886 116.74 586.612 116.647C581.565 114.963 576.262 114.076 570.914 114.021C570.623 114.02 570.342 113.925 570.115 113.751C569.888 113.578 569.729 113.337 569.665 113.067L566.788 100.755C566.752 100.598 566.683 100.45 566.586 100.318C566.49 100.187 566.367 100.075 566.225 99.9887C566.083 99.9026 565.924 99.844 565.758 99.8163C565.592 99.7885 565.422 99.7922 565.258 99.8271L547.653 103.56C547.321 103.63 547.032 103.824 546.849 104.097C546.667 104.371 546.606 104.702 546.679 105.019L549.562 117.331C549.624 117.601 549.588 117.884 549.46 118.132C549.332 118.38 549.119 118.58 548.856 118.698C544.038 120.911 539.631 123.857 535.81 127.421C535.603 127.616 535.334 127.739 535.045 127.769C534.756 127.8 534.465 127.736 534.22 127.588L523.041 120.817C522.754 120.644 522.407 120.587 522.076 120.657C521.745 120.728 521.457 120.92 521.274 121.193L511.599 135.693C511.418 135.966 511.358 136.296 511.432 136.612C511.506 136.927 511.708 137.202 511.994 137.376L523.17 144.146C523.415 144.295 523.599 144.519 523.693 144.781C523.787 145.043 523.785 145.328 523.687 145.589C521.92 150.398 520.989 155.449 520.93 160.544C520.929 160.821 520.83 161.089 520.648 161.305C520.466 161.521 520.212 161.672 519.929 161.733L507.004 164.474C506.672 164.545 506.383 164.738 506.2 165.011C506.018 165.284 505.957 165.616 506.03 165.932L509.95 182.702C510.024 183.019 510.227 183.294 510.514 183.468C510.801 183.642 511.148 183.7 511.48 183.63L524.405 180.888C524.689 180.829 524.986 180.863 525.247 180.986C525.507 181.108 525.717 181.31 525.842 181.561C528.163 186.151 531.256 190.349 534.998 193.989C535.202 194.185 535.331 194.442 535.363 194.717C535.395 194.993 535.328 195.27 535.173 195.504L528.066 206.152C527.885 206.425 527.824 206.756 527.898 207.071C527.972 207.387 528.174 207.661 528.46 207.835L543.676 217.052C543.963 217.224 544.31 217.282 544.641 217.212C544.972 217.142 545.26 216.949 545.443 216.677L552.55 206.029C552.707 205.796 552.942 205.621 553.217 205.531C553.492 205.442 553.791 205.444 554.064 205.537C559.112 207.221 564.415 208.108 569.764 208.164C570.054 208.165 570.336 208.259 570.563 208.433C570.79 208.606 570.948 208.847 571.013 209.117L573.889 221.429C573.964 221.745 574.166 222.02 574.453 222.194C574.74 222.368 575.088 222.426 575.42 222.356L593.025 218.623C593.357 218.552 593.646 218.359 593.828 218.086C594.011 217.812 594.072 217.481 593.998 217.165L591.12 204.853C591.058 204.582 591.094 204.3 591.222 204.051C591.351 203.803 591.563 203.603 591.826 203.484C596.645 201.273 601.052 198.327 604.874 194.762C605.08 194.567 605.35 194.445 605.639 194.415C605.928 194.385 606.219 194.449 606.465 194.596L617.641 201.365C617.928 201.538 618.275 201.596 618.606 201.525C618.937 201.455 619.225 201.263 619.408 200.991L629.089 186.494C629.179 186.359 629.241 186.208 629.27 186.05C629.299 185.892 629.295 185.73 629.258 185.573C629.222 185.416 629.153 185.268 629.056 185.136C628.96 185.005 628.837 184.893 628.694 184.807L617.516 178.036C617.271 177.887 617.087 177.663 616.993 177.401C616.9 177.139 616.902 176.855 617 176.594C618.768 171.786 619.699 166.734 619.758 161.64C619.759 161.363 619.859 161.094 620.04 160.878C620.222 160.662 620.476 160.511 620.759 160.45L633.684 157.709C634.014 157.639 634.302 157.448 634.485 157.176C634.667 156.905 634.73 156.576 634.659 156.26ZM577.457 187.495C571.9 188.856 566.041 188.593 560.642 186.741C555.244 184.888 550.554 181.532 547.184 177.109C543.813 172.685 541.916 167.398 541.741 161.934C541.565 156.471 543.118 151.083 546.198 146.471C549.278 141.859 553.743 138.236 559.012 136.072C564.282 133.908 570.112 133.304 575.747 134.338C581.382 135.372 586.56 137.996 590.609 141.869C594.658 145.742 597.391 150.686 598.452 156.058C599.797 162.858 598.376 169.89 594.477 175.729C590.578 181.567 584.493 185.774 577.457 187.495V187.495Z" fill="#7F70DD"/>
<g id="Group_15">
<path id="Vector_43" d="M629.223 198.11C629.223 198.11 631.375 186.445 622.522 185.48C616.936 184.872 602.894 177.475 600.231 183.656C597.919 189.021 611.329 195.405 616.131 196.589C620.433 197.646 629.223 198.11 629.223 198.11Z" fill="#FAA896"/>
<path id="Vector_44" d="M625.54 186.408C625.54 186.408 614.132 180.45 611.011 180.589C608.247 180.712 612.948 185.804 612.948 185.804L625.54 186.408Z" fill="#FAA896"/>
</g>
<path id="Vector_45" d="M665.917 234.915C663.692 234.915 661.53 234.218 659.762 232.931L612.838 198.776L625.147 183.43L661.888 210.172L685.068 160.732L703.581 168.608L675.172 229.195C674.374 230.897 673.075 232.344 671.433 233.359C669.79 234.373 667.875 234.913 665.917 234.913V234.915Z" fill="#367CFF"/>
</g>
<g id="Group_16">
<path id="Vector_46" d="M675.777 152.661C675.777 152.661 668.586 149.03 670.192 130.379L655.337 127.759C655.337 127.759 657.006 144.481 649.49 149.79L675.777 152.661Z" fill="#FAA896"/>
<g id="Group_17" opacity="0.15">
<path id="Vector_47" opacity="0.15" d="M652.534 146.29L664.879 137.296L655.186 137.2C654.904 140.361 654.005 143.444 652.534 146.29V146.29Z" fill="black"/>
</g>
<path id="Vector_48" d="M678.621 123.147C677.593 128.806 674.351 134.164 669.111 135.99C663.399 138.149 657.22 138.945 651.112 138.307C634.849 137.037 638.066 101.813 645.787 94.9696C653.507 88.1261 676.167 92.4602 678.924 103.904C680.35 109.825 679.6 117.76 678.621 123.147Z" fill="#FAA896"/>
<path id="Vector_49" d="M636.054 107.859C636.054 107.859 639.241 82.823 668.107 88.972C672.775 90.1511 676.931 92.7095 679.976 96.2796C681.123 94.0533 682.944 92.2055 685.204 90.9743C687.464 89.7432 690.06 89.1851 692.656 89.3721C695.252 89.5591 697.73 90.4826 699.769 92.0235C701.809 93.5644 703.318 95.6521 704.101 98.0174C704.884 100.383 704.905 102.917 704.162 105.294C703.418 107.671 701.945 109.781 699.931 111.353C697.917 112.924 695.455 113.885 692.862 114.111C690.269 114.338 687.665 113.819 685.385 112.622C685.359 112.976 685.331 113.34 685.292 113.705C683.525 129.206 669.982 136.968 669.982 136.968C669.982 136.968 666.346 134.346 667.64 109.301C661.372 109.811 647.026 110.546 636.054 107.859Z" fill="#0F1011"/>
<g id="Group_18">
<path id="Vector_50" d="M655.358 118.788C656.102 118.788 656.705 118.213 656.705 117.504C656.705 116.796 656.102 116.221 655.358 116.221C654.613 116.221 654.01 116.796 654.01 117.504C654.01 118.213 654.613 118.788 655.358 118.788Z" fill="#0F1011"/>
<path id="Vector_51" d="M644.728 117.958C645.473 117.958 646.076 117.383 646.076 116.674C646.076 115.966 645.473 115.391 644.728 115.391C643.984 115.391 643.381 115.966 643.381 116.674C643.381 117.383 643.984 117.958 644.728 117.958Z" fill="#0F1011"/>
<path id="Vector_52" d="M642.394 113.941C642.226 113.942 642.064 113.879 641.945 113.767C641.825 113.654 641.758 113.501 641.757 113.341C641.756 113.181 641.821 113.028 641.94 112.914C642.058 112.8 642.218 112.735 642.386 112.735L645.955 112.692H645.963C646.131 112.691 646.293 112.754 646.412 112.866C646.532 112.979 646.599 113.132 646.6 113.292C646.601 113.452 646.536 113.605 646.417 113.719C646.299 113.833 646.139 113.897 645.971 113.898L642.402 113.941H642.394Z" fill="#0F1011"/>
<path id="Vector_53" d="M658.266 115.18C658.216 115.18 658.166 115.175 658.117 115.163L654.598 114.357C654.516 114.34 654.439 114.307 654.371 114.26C654.302 114.214 654.244 114.155 654.2 114.087C654.156 114.019 654.126 113.944 654.113 113.865C654.1 113.786 654.103 113.706 654.123 113.628C654.142 113.55 654.178 113.477 654.227 113.413C654.277 113.348 654.339 113.294 654.411 113.253C654.483 113.211 654.563 113.184 654.646 113.172C654.729 113.161 654.813 113.165 654.894 113.185L658.413 113.991C658.563 114.025 658.695 114.111 658.784 114.232C658.873 114.353 658.911 114.501 658.893 114.648C658.875 114.794 658.801 114.929 658.686 115.027C658.57 115.126 658.421 115.18 658.266 115.18V115.18Z" fill="#0F1011"/>
<path id="Vector_54" d="M654.734 127.613C654.734 127.613 649.761 128.112 646.273 126.952C646.273 126.952 646.301 130.073 650.236 130.38C654.171 130.687 654.734 127.613 654.734 127.613Z" fill="white"/>
</g>
<path id="Vector_55" d="M662.368 120.645C662.267 122.072 662.76 123.479 663.739 124.562C664.719 125.646 666.107 126.318 667.603 126.435C669.099 126.551 670.582 126.102 671.733 125.184C672.885 124.267 673.61 122.954 673.754 121.531C673.828 120.817 673.75 120.095 673.526 119.41C673.302 118.724 672.935 118.089 672.447 117.542C671.959 116.994 671.361 116.546 670.688 116.223C670.014 115.901 669.28 115.71 668.528 115.664C664.455 115.541 662.624 117.651 662.368 120.645Z" fill="#FAA896"/>
<g id="Group_19" opacity="0.15">
<path id="Vector_56" opacity="0.15" d="M649.377 124.623C649.488 124.623 649.596 124.585 649.68 124.516C649.765 124.447 649.82 124.351 649.837 124.246C649.853 124.141 649.83 124.034 649.77 123.944C649.711 123.855 649.62 123.788 649.513 123.757L646.773 122.955L648.691 118.89C648.741 118.783 648.745 118.661 648.701 118.551C648.657 118.441 648.569 118.352 648.457 118.304C648.344 118.256 648.216 118.252 648.101 118.294C647.985 118.336 647.892 118.419 647.842 118.527L645.709 123.05C645.682 123.107 645.669 123.17 645.669 123.232C645.669 123.295 645.683 123.357 645.71 123.414C645.737 123.472 645.777 123.523 645.826 123.564C645.876 123.606 645.934 123.637 645.997 123.655L649.24 124.604C649.284 124.617 649.33 124.623 649.377 124.623V124.623Z" fill="black"/>
</g>
</g>
</g>
<g id="grass">
<path id="Vector_57" d="M318.146 467.743H281.808C275.494 459.824 264.411 443.862 271.57 437.033C274.825 433.933 278.414 436.883 281.743 442.171C280.59 431.816 281.743 421.931 289.303 419.043C296.183 416.412 299.252 424.34 300.442 434.969C303.836 428.928 308.29 424.677 314.111 425.004C322.424 425.483 320.415 436.05 315.552 447.751C319.243 445.076 323.102 443.765 326.868 444.934C334.743 447.388 327.38 457.92 318.146 467.743Z" fill="#8DDBE0"/>
<path id="Vector_58" d="M316.25 505.008H282.741L277.131 467.744H321.86L316.25 505.008Z" fill="#C1D8ED"/>
</g>
</g>
<defs>
<clipPath id="clip0_1_215">
<rect width="759" height="531" fill="white"/>
</clipPath>
</defs>
</svg>
